<?xml version="1.0" standalone="no"?>
<!DOCTYPE svg PUBLIC "-//W3C//DTD SVG 20010904//EN"
 "http://www.w3.org/TR/2001/REC-SVG-20010904/DTD/svg10.dtd">
<svg version="1.0" xmlns="http://www.w3.org/2000/svg"
 width="700.000000pt" height="700.000000pt" viewBox="0 0 700.000000 700.000000"
 preserveAspectRatio="xMidYMid meet">
<metadata>
Created by potrace 1.11, written by Peter Selinger 2001-2013
</metadata>
<g transform="translate(0.000000,700.000000) scale(0.100000,-0.100000)"
fill="#000000" stroke="none">
<path d="M0 3500 l0 -3500 3500 0 3500 0 0 3500 0 3500 -3500 0 -3500 0 0
-3500z m5700 3354 c264 -38 483 -122 594 -228 117 -113 175 -239 183 -401 l5
-100 -515 -2415 c-284 -1328 -525 -2441 -537 -2472 -60 -162 -196 -290 -370
-350 -65 -23 -69 -23 -645 -23 -541 0 -584 1 -635 19 -99 34 -173 79 -245 151
-80 80 -127 162 -154 266 -16 62 -19 68 -24 43 -4 -16 -9 -91 -13 -166 l-7
-138 32 -69 c80 -174 79 -350 -4 -519 -88 -177 -261 -297 -468 -323 -158 -20
-538 21 -712 77 -212 68 -418 210 -551 378 -326 411 -336 1022 -32 1956 22 68
37 126 32 127 -5 2 -53 18 -107 37 -297 102 -514 337 -598 646 -21 75 -23 107
-23 265 0 162 3 190 27 278 167 621 864 1064 1725 1094 l172 6 95 133 c510
714 1084 1268 1572 1517 406 208 771 271 1203 211z"/>
<path d="M5280 6275 c-8 -2 -49 -9 -90 -15 -181 -29 -404 -123 -596 -252 -427
-286 -919 -821 -1326 -1440 l-123 -187 -105 7 c-168 11 -415 6 -543 -12 -496
-70 -869 -300 -975 -600 -34 -97 -36 -234 -3 -318 56 -145 216 -228 411 -215
191 13 310 109 310 250 0 66 -32 160 -61 181 -20 14 -20 14 4 63 51 100 167
180 331 228 106 30 406 72 406 56 0 -4 -36 -72 -81 -151 -441 -790 -785 -1710
-849 -2269 -7 -59 -10 -166 -8 -250 8 -227 51 -337 176 -453 74 -68 180 -122
282 -143 79 -16 366 -42 374 -34 3 3 -5 27 -18 54 -43 91 -51 148 -50 340 1
190 17 339 59 571 122 661 427 1589 749 2285 l26 57 48 -5 c103 -10 293 -45
402 -74 121 -32 420 -146 420 -160 0 -4 -110 -528 -245 -1163 -135 -636 -245
-1158 -245 -1161 0 -3 206 -5 458 -5 l458 0 117 548 c64 301 290 1361 502
2356 212 995 384 1815 381 1822 -6 16 -110 50 -211 69 -74 15 -350 29 -385 20z
m-584 -1330 c-102 -477 -187 -869 -189 -871 -2 -2 -52 14 -111 37 -136 51
-372 118 -543 155 -73 16 -133 32 -133 37 0 14 134 273 210 406 271 474 539
822 776 1007 91 71 167 118 172 105 1 -5 -80 -399 -182 -876z"/>
</g>
</svg>
