
<svg xmlns="http://www.w3.org/2000/svg" version="1.1" id="Layer_1" x="0" y="0" xml:space="preserve" width="380.7" height="76.4"><style id="style3877">.st0{fill:#fff}.st1{fill:#b97f25}</style><path class="st0" d="M33.1 65.6c-2.3 0-4.7-.6-7-1.8-.6.6-1.5.9-2.4.9H13.3c-1.1 0-2.1-.5-2.7-1.3-.7-.8-.9-1.9-.7-2.9L15 36.4h-.4c-3.3 0-6-.8-7.9-2.4-1.5-1.2-3.3-3.5-3.3-7.8 0-4.1 1.5-8 4.5-11.5 2.8-3.3 6.5-6 11.1-8 4.5-2 9.5-3 14.7-3 7.7 0 13.5 2.4 17.3 7.1 3.6 4.5 5.5 10.3 5.5 17.1 0 5.8-1 11.7-3 17.3-2 5.7-4.7 10.5-8.1 14.2-3.7 4.1-7.9 6.2-12.3 6.2zm-3.9-13.3c.5 0 2.2 0 4.3-3.2 1.9-2.8 3.3-6.5 4.4-11 1.1-4.6 1.6-9.3 1.6-14 0-3.8-.7-6.6-1.9-8.1l-.6-.6zm-11.4-29c-.2.8-.4 1.6-.5 2.4z" id="path3879" fill="#fff"/><path class="st0" d="M33.8 7.2c6.6 0 11.4 1.9 14.5 5.8 3.1 3.9 4.7 8.9 4.7 14.9 0 5.5-.9 10.9-2.8 16.2-1.8 5.3-4.3 9.6-7.4 13-3.1 3.4-6.3 5-9.8 5-2.9 0-5.8-1.3-8.8-3.8l-.6 2.9H13.3l9.8-45.8L33.8 14l-8.7 40.3c1.3 1 2.7 1.4 4.1 1.4 2.7 0 5.1-1.6 7.2-4.8 2.1-3.2 3.7-7.2 4.9-12.1C42.5 33.9 43 29 43 24c0-4.7-.9-8.1-2.8-10.3-1.8-2.2-4.4-3.3-7.7-3.3-3.6 0-6.8.7-9.7 2.1-2.9 1.4-5.1 3.4-6.7 6.1-1.6 2.6-2.4 5.7-2.4 9.3 0 1.8.2 3 .5 3.7.3.7.5 1.1.5 1.2-2.5 0-4.4-.5-5.7-1.6-1.3-1.1-2-2.8-2-5.1 0-3.3 1.2-6.4 3.7-9.3 2.4-2.9 5.7-5.3 9.8-7.1 4.1-1.6 8.5-2.5 13.3-2.5m0-7c-5.7 0-11.1 1.1-16.1 3.2-5.1 2.2-9.3 5.2-12.4 9C1.8 16.6 0 21.2 0 26.2c0 5.7 2.5 8.9 4.6 10.6 1.7 1.4 3.8 2.3 6.2 2.8L6.5 59.8c-.4 2.1.1 4.2 1.4 5.9 1.3 1.6 3.3 2.6 5.4 2.6h10.4c.9 0 1.7-.2 2.5-.5 2.2.9 4.5 1.4 6.8 1.4 5.5 0 10.5-2.5 15-7.3 3.7-4 6.7-9.2 8.8-15.4 2.1-6 3.2-12.2 3.2-18.5 0-7.7-2.1-14.1-6.2-19.3C49.3 3 42.6.2 33.8.2zm35.4 24.6c-2.5 0-4.8-.9-6.5-2.7-1.8-1.8-2.7-4-2.7-6.5s.9-4.7 2.7-6.5c1.8-1.8 4-2.7 6.5-2.7s4.8.9 6.5 2.7c1.8 1.8 2.7 4 2.7 6.5s-.9 4.8-2.7 6.5c-1.8 1.8-4 2.7-6.5 2.7z" id="path3881" fill="#fff"/><path class="st0" d="M69.2 9.8c1.6 0 2.9.6 4.1 1.7 1.1 1.1 1.7 2.5 1.7 4.1 0 1.6-.6 2.9-1.7 4s-2.5 1.7-4.1 1.7c-1.6 0-2.9-.6-4-1.7s-1.7-2.4-1.7-4 .6-2.9 1.7-4.1c1.1-1.1 2.4-1.7 4-1.7m0-7c-3.5 0-6.6 1.3-9 3.8-2.4 2.4-3.7 5.5-3.7 9s1.3 6.6 3.7 9c2.4 2.4 5.5 3.7 9 3.7 3.4 0 6.5-1.3 9-3.7 2.5-2.4 3.8-5.6 3.8-9 0-3.4-1.3-6.6-3.7-9-2.5-2.5-5.6-3.8-9.1-3.8z" id="path3883" fill="#fff"/><path class="st0" d="M104 65.1c-4.6 0-7.1-2-8.3-3.7-1.6-2.1-2.4-4.8-2.4-7.9 0-1.2.1-2.6.4-4.1.2-1.3.5-2.6.8-3.8.3-1.5.5-2.1.6-2.4.4-1.6.7-3.2 1-4.8.2-1 .3-1.8.4-2.4-.5.8-.9 1.8-1.3 2.9l-4.9 23c-.3 1.6-1.8 2.8-3.4 2.8H76.5c-1.1 0-2.1-.5-2.7-1.3-.2-.3-.4-.6-.5-.9-3 1.7-6 2.6-9 2.6-3.2 0-6-1.1-8.1-3.2-2.1-2.1-3.1-5.1-3.1-8.9 0-1.4.2-3.2.6-5.4l4.9-23.2c.3-1.6 1.8-2.8 3.4-2.8h10.4c1.1 0 2.1.5 2.7 1.3.7.8.9 1.9.7 2.9l-5.2 24.5v.2c0 .1-.1.3-.1.4.2-.1.5-.3.8-.6.8-.7 1.3-1.7 1.7-3 .4-1.5 1.8-2.5 3.4-2.5l4.3-20.3c.3-1.6 1.8-2.8 3.4-2.8h10.4c.8 0 1.6.3 2.2.8 1.7-.7 3.5-1.1 5.4-1.1 3.4 0 6.1 1 8.2 3 2.2 2 3.3 4.9 3.3 8.7 0 1.6-.2 3.4-.6 5.3-.3 1.7-.8 3.9-1.5 6.4-.4 1.4-.7 2.9-1 4.2-.2 1-.3 1.7-.4 2.1h.1c.5-.3 1.1-.4 1.6-.4.6 0 1.3.2 1.8.5 1.2.7 1.8 2 1.6 3.4-.4 3.3-1.7 6-3.8 7.8-1.9 1.8-4.4 2.7-7.4 2.7z" id="path3885" fill="#fff"/><path class="st0" d="M102.2 24.9c2.4 0 4.4.7 5.8 2 1.4 1.3 2.2 3.4 2.2 6.1 0 1.4-.2 2.9-.5 4.6-.3 1.7-.8 3.8-1.4 6.2-.4 1.5-.7 2.9-1 4.4-.3 1.4-.5 2.5-.5 3.3 0 1 .2 1.7.6 2.2.4.5 1.2.8 2.2.8 1.2 0 1.9-.1 2.4-.4-.3 2.4-1.2 4.3-2.6 5.5-1.5 1.2-3.2 1.9-5.3 1.9-2.5 0-4.4-.8-5.5-2.3-1.2-1.5-1.7-3.5-1.7-5.8 0-1 .1-2.1.4-3.4.2-1.3.5-2.5.8-3.7.3-1.2.4-2 .5-2.3.4-1.7.7-3.3 1.1-5 .3-1.6.5-3 .5-4 0-2.4-.9-3.7-2.6-3.7-1.2 0-2.4.6-3.3 1.8-1 1.2-1.7 2.8-2.3 4.8L87.1 61H76.7l2.5-11.9c-1.7 4.7-3.9 7.9-6.5 9.6-2.8 1.8-5.5 2.8-8.3 2.8-2.3 0-4.2-.7-5.6-2.2-1.4-1.4-2.1-3.6-2.1-6.5 0-1.2.2-2.8.6-4.7L62.2 25h10.4l-5.2 24.5c-.2.7-.3 1.5-.3 2.3 0 1 .2 1.6.7 2.1.5.4 1.2.6 2.3.6 1.4 0 2.7-.6 3.9-1.8 1.2-1.2 2.1-2.7 2.6-4.6h2.9L84.4 25h10.4l-.8 3.7c2.2-2.5 5-3.8 8.2-3.8m0-7c-1.8 0-3.5.3-5.1.8-.8-.3-1.6-.5-2.5-.5H84.2c-2.4 0-4.6 1.2-5.9 3.2-.1-.2-.3-.4-.4-.6-1.3-1.6-3.3-2.6-5.4-2.6H62.1c-3.3 0-6.2 2.3-6.8 5.5l-4.9 23.1v.1c-.5 2.4-.7 4.4-.7 6.1 0 4.8 1.4 8.6 4.1 11.4 2.7 2.8 6.4 4.3 10.6 4.3 2.7 0 5.5-.6 8.2-1.7 1.2.8 2.6 1.3 4.1 1.3h10.4c2.8 0 5.3-1.7 6.4-4.2 1.8 2.2 5.1 4.6 10.7 4.6 3.7 0 7.1-1.2 9.8-3.5 2-1.7 4.4-4.8 5-10.1.3-2.7-1-5.4-3.3-6.8-.4-.2-.7-.4-1.1-.6.2-.7.3-1.3.5-2 .7-2.6 1.2-4.8 1.5-6.6.4-2.1.6-4.2.6-6 0-5.9-2.4-9.4-4.4-11.2-1.9-1.9-5.3-4-10.6-4zm46.8 55c-2 0-3.8-.2-5.4-.5-2.1-.4-3.9-1.5-5.4-3.2-1.6-1.8-2.4-4.3-2.4-7.4 0-3.7 1-8.3 3.1-14.1.4-1 .7-2 1.1-3-.5.1-1.1.1-1.7.1-2.2 0-4.1-.7-5.6-2-1.1-1-2.4-2.7-2.4-5.7 0-2.5 1-4.9 2.9-6.9 1.7-1.7 3.9-3.1 6.7-4.1 2.6-.9 5.5-1.4 8.6-1.4.6 0 1.2 0 1.9.1 3.8-5.7 7.8-10.5 12-14.2 5-4.5 10-6.8 14.9-6.8 2.8 0 5.2.4 7.1 1.3 1.5.7 2.3 2.3 2 3.9l-11.3 53c-.3 1.6-1.8 2.8-3.4 2.8h-10.4c-1.1 0-2.1-.5-2.7-1.3-.6-.8-.9-1.9-.7-2.9l4.9-23.3c-.6-.2-1.2-.4-1.7-.5-.6-.1-1.1-.3-1.8-.4-2.2 5-4 10.1-5.5 15.3-1.7 5.8-2.5 10.5-2.5 13.8 0 1.5.3 1.9.3 1.9.8 1.1 1 2.5.4 3.7-.4 1-1.6 1.8-3 1.8zM164.1 27c.3.1.7.2 1 .3l.7-3.1c-.6.9-1.1 1.8-1.7 2.8z" id="path3887" fill="#fff"/><path class="st0" d="M177.5 7.2c2.3 0 4.2.3 5.7 1l-11.3 53h-10.4l5.5-26.1c-1.8-.8-3.4-1.4-4.9-1.8-1.5-.4-3.1-.6-4.8-.8-2.7 5.9-5 11.9-6.7 18.1-1.8 6.2-2.6 11.1-2.6 14.8 0 1.8.3 3.2 1 4-1.8 0-3.3-.1-4.7-.4-1.3-.3-2.5-1-3.5-2.1s-1.5-2.8-1.5-5.1c0-3.2 1-7.5 2.9-13 1.9-5.4 4.5-10.9 7.7-16.3-2.4.1-4.3.5-5.7 1.1-1.4.6-2.3 1.5-2.7 2.7.2 0 .4.2.6.7.2.5.3 1 .3 1.5 0 .9-.4 1.5-1.2 2.1-.8.5-1.7.8-2.9.8-1.3 0-2.4-.4-3.2-1.1-.8-.7-1.2-1.8-1.2-3.1 0-1.6.6-3.1 1.9-4.5 1.3-1.3 3-2.4 5.3-3.2 2.3-.8 4.8-1.2 7.5-1.2 1 0 2.3.1 3.7.2 3.9-6.2 8.1-11.3 12.5-15.3 4.5-4.1 8.7-6 12.7-6m-9.8 24.7l4.2-19.6c-2.1 1.1-4.2 3.2-6.4 6.2s-4.4 6.6-6.5 10.9c3.4.6 6.3 1.5 8.7 2.5M177.5.2c-5.8 0-11.6 2.6-17.3 7.7-4 3.6-7.8 8.1-11.4 13.3h-.1c-3.5 0-6.8.5-9.8 1.6-3.3 1.2-6 2.8-8.1 5-2.5 2.6-3.8 5.8-3.8 9.3 0 3.3 1.3 6.3 3.6 8.3 1 .9 2.5 1.9 4.6 2.4-1.9 5.6-2.8 10.2-2.8 13.9 0 4.1 1.1 7.3 3.3 9.8 2 2.2 4.5 3.7 7.3 4.3 1.8.4 3.9.6 6.1.6 2.7 0 5.1-1.5 6.3-3.9 1-2.1.9-4.7-.3-6.7v-.4c0-.4 0-.8.1-1.4.2.6.6 1.1 1 1.6 1.3 1.6 3.3 2.6 5.4 2.6H172c3.3 0 6.2-2.3 6.8-5.5l11.3-53c.7-3.2-1-6.5-4-7.8-2.5-1.2-5.3-1.7-8.6-1.7z" id="path3889" fill="#fff"/><path class="st0" d="M233.2 65.1c-3.7 0-6.7-1-8.9-3-.7-.7-1.4-1.4-1.9-2.3-3.8 3.9-8.2 4.9-11.8 4.9-2.8 0-5.2-.8-7.1-2.4l-.9-.9c-.5.4-1 .8-1.6 1.2-2.3 1.7-5.1 2.5-8.2 2.5-3.7 0-6.8-1.3-9.3-3.9-2.5-2.5-3.7-6.3-3.7-11.2 0-3.9.8-8.1 2.3-12.4 1.6-4.4 4-8.2 7.2-11.3 3.5-3.4 7.7-5.1 12.5-5.1 1.4 0 2.7.1 3.7.4l2.2-10.3c.3-1.4 1.5-2.5 3-2.7l10.7-1.4h.5c1 0 1.9.4 2.6 1.1.8.8 1.1 2 .9 3.1l-8.3 38.9c0 .1-.1.3-.1.4l.2-.2c.7-.8 1.2-1.9 1.6-3.3.4-1.5 1.8-2.5 3.4-2.5l4.3-20.3c.3-1.6 1.8-2.8 3.4-2.8h10.4c1 0 2 .4 2.6 1.2.2-.2.3-.4.5-.6 1.4-1.4 3.4-2.1 5.8-2.1 2.8 0 5.1 1.2 6.4 3.4 1.1 1.7 1.6 3.9 1.6 6.3 0 4.6-.8 9.6-2.4 14.9-1.6 5.4-4.2 10.1-7.6 13.9-3.7 4.4-8.4 6.5-14 6.5zm-30-32c-.5.4-1 1-1.4 1.5-1.3 1.9-2.4 4.3-3.1 7-.8 2.8-1.2 5.3-1.2 7.4 0 1.1.1 1.8.2 2.1.2 0 .6-.2 1.1-.7.6-.5 1-1.2 1.3-2.2 0-.2 0-.4.1-.7zm35.3 17.3v.2c.8-.6 1.5-1.5 2-2.1 1.7-2.5 3.1-5.5 4.1-9 .5-1.8.9-3.4 1.2-4.9-1.4-.4-2.5-1.3-3.3-2.6z" id="path3891" fill="#fff"/><path class="st0" d="M221.9 10.8l-8.3 38.9c-.2.7-.3 1.5-.3 2.3 0 1 .2 1.6.7 2.1.5.4 1.2.6 2.3.6 1.3 0 2.5-.6 3.5-1.7 1-1.2 1.8-2.7 2.3-4.6h2.9l4.9-23.1h10.4l-5.2 24.5c-.2 1.2-.4 2.1-.4 2.6 0 1.6.8 2.4 2.4 2.4 2.2 0 4.3-1.4 6.2-4.2 1.9-2.8 3.4-6.1 4.6-9.9 1.2-3.8 1.7-7.2 1.7-9.9-.1.2-.4.4-.9.5-.5.1-1 .2-1.4.2-.8 0-1.5-.4-1.9-1.2-.5-.8-.7-1.6-.7-2.5 0-1.2.4-2.1 1.1-2.8.7-.7 1.9-1.1 3.3-1.1 1.6 0 2.7.6 3.5 1.8.7 1.2 1.1 2.7 1.1 4.5 0 4.3-.7 8.9-2.2 13.9-1.5 4.9-3.8 9.1-6.8 12.6-3.1 3.5-6.9 5.2-11.4 5.2-2.8 0-5-.7-6.5-2.1-1.6-1.4-2.3-3.5-2.3-6.4 0-1.2.1-2.3.4-3.5l.1-.4c-3 8-7.7 12-14.1 12-2 0-3.6-.5-4.8-1.6-1.2-1.1-2-2.6-2.3-4.6-1.2 1.9-2.7 3.5-4.5 4.8-1.8 1.2-3.8 1.9-6.2 1.9-2.7 0-5-.9-6.8-2.8-1.8-1.9-2.7-4.8-2.7-8.8 0-3.6.7-7.3 2.1-11.2 1.4-3.9 3.5-7.2 6.3-9.9s6.2-4.1 10-4.1c2 0 3.4.3 4.4 1 1 .7 1.4 1.6 1.4 2.7v.3l3.5-16.6 10.6-1.8m-24.3 43.8c1.2 0 2.3-.5 3.5-1.6 1.2-1.1 2-2.5 2.4-4.4v-.4l3.5-16.5c-.4-1.7-1.4-2.5-3-2.5-1.9 0-3.6 1.1-5.2 3.3-1.5 2.2-2.7 4.9-3.6 8.1-.9 3.1-1.3 5.9-1.3 8.3 0 2.4.3 3.9 1 4.6.9.8 1.7 1.1 2.7 1.1m24.3-50.8c-.3 0-.6 0-.9.1l-10.7 1.4c-2.9.4-5.3 2.6-5.9 5.5l-1.5 7.1h-1c-5.7 0-10.8 2.1-14.9 6-3.6 3.4-6.3 7.7-8.1 12.6-1.7 4.7-2.5 9.2-2.5 13.6 0 5.9 1.6 10.5 4.7 13.7 3.1 3.2 7.2 4.9 11.9 4.9 3.6 0 6.8-.9 9.6-2.8 2.3 1.5 5.1 2.3 8.1 2.3 3.5 0 7.5-.8 11.4-3.4 2.9 2.6 6.6 3.9 11.1 3.9 6.5 0 12.3-2.6 16.7-7.5 3.7-4.2 6.5-9.3 8.3-15.2 1.7-5.6 2.5-10.9 2.5-15.9 0-3.1-.7-5.9-2.1-8.2-2-3.3-5.4-5.1-9.4-5.1-3 0-5.1.8-6.7 1.8-.7-.2-1.5-.4-2.3-.4h-10.4c-.9 0-1.7.2-2.5.5l1.4-6.4c.5-2.2-.2-4.5-1.7-6.2-1.3-1.5-3.2-2.3-5.1-2.3zm0 14z" id="path3893" fill="#fff"/><g id="g3899" transform="translate(-67.9 -202)"><path class="st0" d="M335.9 267.1c-4.5 0-8-1.3-10.7-3.7-2.7-2.5-4.1-6.3-4.1-11.2 0-3.7.7-7.7 2.1-12 1.5-4.5 3.9-8.4 7.2-11.7 3.6-3.6 8.2-5.4 13.6-5.4 7.2 0 11.4 3.9 11.4 10.4 0 3.4-1 6.5-2.9 9.4-1.9 2.7-4.3 4.9-7.4 6.5-2 1.1-4.2 1.9-6.4 2.3 0 1.3.2 2 .3 2.2.2.1.6.2 1.4.2 1.9 0 3.5-.4 4.8-1.2 1.6-1 3.4-2.7 5.4-4.9.7-.7 1.6-1.2 2.6-1.2h2.4c1.3 0 2.4.7 3 1.8.6 1.1.6 2.4 0 3.5-5.9 9.9-13.6 15-22.7 15z" id="path3895" fill="#fff"/><path class="st0" d="M344.1 226.5c5.3 0 7.9 2.3 7.9 6.9 0 2.7-.8 5.2-2.3 7.4-1.5 2.3-3.6 4.1-6.1 5.4-2.5 1.4-5.3 2.1-8.1 2.3-.1 1.4-.1 2.4-.1 2.9 0 2.4.4 3.9 1.2 4.8.8.8 2.1 1.3 4 1.3 2.6 0 4.8-.6 6.7-1.8 1.8-1.2 3.9-3 6.1-5.5h2.4c-5.3 8.9-11.9 13.3-19.8 13.3-3.6 0-6.3-.9-8.3-2.8-2-1.8-3-4.7-3-8.7 0-3.3.6-7 1.9-10.9 1.3-4 3.4-7.4 6.3-10.3 3-2.8 6.7-4.3 11.2-4.3m-8.1 18.7c1.8-.1 3.5-.7 5.1-1.9 1.6-1.2 2.9-2.6 3.9-4.4 1-1.8 1.5-3.6 1.5-5.6 0-2-.6-3-1.8-3-1.7 0-3.4 1.5-5.1 4.5-1.7 3.1-2.8 6.5-3.6 10.4m8.1-25.7c-6.4 0-11.8 2.1-16.1 6.4-3.7 3.7-6.4 8.1-8.1 13.1-1.5 4.7-2.3 9.1-2.3 13.1 0 5.9 1.7 10.6 5.2 13.8 3.3 3.1 7.7 4.7 13.1 4.7 7.2 0 17.4-2.9 25.7-16.6.7-1.1 1.1-2.4 1.1-3.8 0-3.6-2.7-6.6-6.3-7 1.7-3 2.6-6.4 2.6-9.9 0-8.3-5.8-13.8-14.9-13.8z" id="path3897" fill="#fff"/></g><g id="g3905" transform="translate(-67.9 -202)"><path class="st0" d="M382.1 267.1c-4 0-7-1.2-9.1-3.5-1.9-2.2-2.9-4.9-2.9-8.1 0-1.2.1-2.6.4-4.1.2-1.3.5-2.6.8-3.8.3-1.5.5-2.1.6-2.4.4-1.6.7-3.2 1-4.8.2-1 .3-1.8.4-2.4-.5.8-.9 1.8-1.3 2.9l-4.9 23c-.3 1.6-1.8 2.8-3.4 2.8h-10.4c-1.1 0-2.1-.5-2.7-1.3-.7-.8-.9-1.9-.7-2.9l7.6-36c.3-1.6 1.8-2.8 3.4-2.8h10.4c.8 0 1.6.3 2.2.8 1.7-.7 3.5-1.1 5.4-1.1 3.4 0 6.1 1 8.2 3 2.2 2 3.3 4.9 3.3 8.7 0 1.6-.2 3.4-.6 5.3-.3 1.7-.8 3.9-1.5 6.4-.4 1.4-.7 2.9-1 4.2-.2.9-.3 1.5-.3 1.9l.1-.1c.4-.5 1.1-1.6 2-3.8.5-1.3 1.8-2.2 3.3-2.2h3c1.1 0 2.2.5 2.8 1.5.7.9.8 2.1.5 3.2-2 6-4.4 10-7.3 12.3-2.9 2.1-6 3.3-9.3 3.3z" id="path3901" fill="#fff"/><path class="st0" d="M379 226.9c2.4 0 4.4.7 5.8 2 1.4 1.3 2.2 3.4 2.2 6.1 0 1.4-.2 2.9-.5 4.6-.3 1.7-.8 3.8-1.4 6.2-.4 1.5-.7 2.9-1 4.4-.3 1.4-.5 2.5-.5 3.3 0 1 .2 1.7.6 2.2.4.5 1.2.8 2.2.8 1.4 0 2.6-.5 3.5-1.5.9-1 1.7-2.6 2.6-4.8h3c-1.8 5.3-3.8 8.8-6.2 10.6-2.3 1.8-4.7 2.7-7.2 2.7-2.9 0-5.1-.8-6.4-2.3-1.4-1.6-2.1-3.5-2.1-5.8 0-1 .1-2.1.4-3.4.2-1.3.5-2.5.8-3.7.3-1.2.4-2 .5-2.3.4-1.7.7-3.3 1.1-5 .3-1.6.5-3 .5-4 0-2.4-.9-3.7-2.6-3.7-1.2 0-2.4.6-3.3 1.8-1 1.2-1.7 2.8-2.3 4.8l-4.9 23.1h-10.4l7.6-36h10.4l-.8 3.7c2.4-2.5 5.2-3.8 8.4-3.8m0-7c-1.8 0-3.5.3-5.1.8-.8-.3-1.6-.5-2.5-.5H361c-3.3 0-6.2 2.3-6.8 5.5l-7.6 36c-.4 2.1.1 4.2 1.4 5.9 1.3 1.6 3.3 2.6 5.4 2.6h10.4c2.9 0 5.5-1.8 6.5-4.4 0 .1.1.1.1.2 1.9 2.2 5.5 4.7 11.7 4.7 4.1 0 7.9-1.4 11.5-4.2 3.4-2.7 6.2-7.1 8.4-13.7.3-.8.4-1.6.4-2.5 0-3.9-3.1-7-7-7h-2.6c.2-.8.3-1.6.5-2.3.4-2.1.6-4.2.6-6 0-5.9-2.4-9.4-4.4-11.2-1.8-1.8-5.2-3.9-10.5-3.9z" id="path3903" fill="#fff"/></g><g id="g3911" transform="translate(-67.9 -202)"><path class="st0" d="M402.1 267.1c-4.4 0-6.9-1.9-8.2-3.6-1.7-2.1-2.5-4.8-2.5-8.1 0-1.5.2-3 .5-4.6l3.8-17.9c-.3-.2-.6-.5-.9-.8-.7-.8-.9-1.9-.7-2.9l.6-2.9c.3-1.5 1.5-2.6 3-2.8l1.6-7.2c.3-1.4 1.5-2.5 3-2.7l10.7-1.4h.5c1 0 1.9.4 2.6 1.1.8.9 1.1 2 .8 3.2-.5 2.3-.6 2.8-.7 2.9 0 .1 0 .3-.1.3-.2.8-.5 2-.8 3.8 1 0 2 .5 2.7 1.3.7.8.9 1.9.7 2.9l-.6 2.9c-.3 1.6-1.8 2.8-3.4 2.8h-1.5l-4 18.8c-.1.3-.1.5-.2.8.3-.1.5-.1.8-.1.9 0 1.8.3 2.4 1 1 .9 1.3 2.4.9 3.6-1.2 3.5-2.7 5.9-4.6 7.3-1.9 1.6-4.1 2.3-6.4 2.3z" id="path3907" fill="#fff"/><path class="st0" d="M413.4 215.8c-.4 1.8-.7 2.9-.7 3.2-.3 1.3-.9 4.1-1.7 8.1h4.3l-.6 2.9h-4.3l-4.6 21.6c-.2 1.1-.4 1.9-.4 2.5 0 1.7.8 2.6 2.5 2.6.9 0 1.5-.1 1.9-.2-1 2.8-2.1 4.7-3.4 5.6-1.3 1-2.7 1.4-4.2 1.4-2.4 0-4.3-.7-5.4-2.2-1.2-1.5-1.8-3.5-1.8-5.9 0-1.2.1-2.5.4-3.8L400 230h-2.4l.6-2.9h2.4l2.2-9.9 10.6-1.4m0-7h-.2c-.3 0-.6 0-.8.1l-10.5 1.4c-2.9.4-5.3 2.6-5.9 5.4l-1.2 5.3c-1.7 1-3 2.7-3.4 4.7l-.6 2.9c-.4 1.9.1 3.9 1.2 5.5l-3.4 16c-.4 1.8-.6 3.6-.6 5.3 0 4.1 1.1 7.5 3.3 10.2 1.8 2.2 5.1 4.9 10.9 4.9 3 0 5.9-1 8.4-2.8 2.5-1.8 4.4-4.8 5.8-9 .9-2.6.2-5.4-1.7-7.3-.5-.4-1-.8-1.5-1.1l2.9-13.5c2.7-.5 4.9-2.7 5.5-5.5l.6-2.9c.4-2.1-.1-4.2-1.5-5.8-.4-.5-.9-.9-1.4-1.3.1-.3.1-.5.2-.7.1-.2.1-.4.1-.6 0-.2.1-.7.6-2.5.2-.6.2-1.2.2-1.8 0-3.8-3.1-6.9-6.9-7z" id="path3909" fill="#fff"/></g><g id="g3917" transform="translate(-67.9 -202)"><path class="st0" d="M426.2 267.1c-2.5 0-4.8-.9-6.5-2.7-1.8-1.8-2.7-4-2.7-6.5s.9-4.8 2.7-6.5c1.8-1.7 4-2.7 6.5-2.7s4.8.9 6.5 2.7c1.8 1.8 2.7 4 2.7 6.5s-.9 4.7-2.7 6.5c-1.7 1.7-4 2.7-6.5 2.7z" id="path3913" fill="#fff"/><path class="st0" d="M426.2 252.1c1.6 0 2.9.6 4 1.7s1.7 2.4 1.7 4-.6 2.9-1.7 4.1c-1.1 1.1-2.4 1.7-4 1.7s-2.9-.6-4.1-1.7c-1.1-1.1-1.7-2.5-1.7-4.1 0-1.6.6-2.9 1.7-4s2.5-1.7 4.1-1.7m0-7c-3.4 0-6.5 1.3-9 3.7-2.5 2.4-3.8 5.6-3.8 9 0 3.5 1.3 6.6 3.7 9 2.4 2.4 5.6 3.7 9 3.7 3.5 0 6.6-1.3 9-3.8 2.4-2.4 3.7-5.5 3.7-9 0-3.4-1.3-6.6-3.7-9-2.4-2.3-5.5-3.6-8.9-3.6z" id="path3915" fill="#fff"/></g><g id="g3923" transform="translate(-67.9 -202)"><path class="st0" d="M425.2 250c-1 0-2-.4-2.7-1.2-.7-.8-1-1.8-.8-2.8l5.5-36c.2-1.5 1.4-2.7 3-2.9l11.1-1.5h.5c1 0 2 .4 2.6 1.2.8.9 1.1 2.1.7 3.2l-10.4 37.5c-.4 1.5-1.8 2.6-3.4 2.6h-6.1z" id="path3919" fill="#fff"/><path class="st0" d="M441.7 209l-10.4 37.5h-6.1l5.5-36 11-1.5m0-7h-.2c-.3 0-.6 0-.8.1l-11 1.5c-3.1.4-5.5 2.8-6 5.9l-5.5 36c-.3 2 .3 4.1 1.6 5.6s3.3 2.4 5.3 2.4h6.1c3.1 0 5.9-2.1 6.7-5.1l10.4-37.3c.2-.7.3-1.4.3-2.1 0-3.8-3.1-6.9-6.9-7 .1 0 .1 0 0 0zm0 14z" id="path3921" fill="#fff"/></g><g id="g3931" transform="translate(-67.9 -202)"><path class="st1" d="M92.1 260.3l-.6 2.9H81.1l9.8-45.8 10.7-1.4-8.6 40.4c1.3 1 2.7 1.4 4.1 1.4 2.7 0 5.1-1.6 7.2-4.8 2.1-3.2 3.7-7.2 4.9-12.1 1.2-4.9 1.7-9.8 1.7-14.8 0-4.7-.9-8.1-2.8-10.3-1.8-2.2-4.4-3.3-7.7-3.3-3.6 0-6.8.7-9.7 2.1-2.9 1.4-5.1 3.4-6.7 6.1-1.6 2.6-2.4 5.7-2.4 9.3 0 1.8.2 3 .5 3.7.3.7.5 1.1.5 1.2-2.5 0-4.4-.5-5.7-1.6-1.3-1.1-2-2.8-2-5.1 0-3.3 1.2-6.4 3.7-9.3 2.4-2.9 5.7-5.3 9.8-7.1 4.1-1.8 8.5-2.7 13.3-2.7 6.6 0 11.4 1.9 14.5 5.8 3.1 3.9 4.7 8.9 4.7 14.9 0 5.5-.9 10.9-2.8 16.2-1.8 5.3-4.3 9.6-7.4 13-3.1 3.4-6.3 5-9.8 5-2.9.1-5.8-1.1-8.8-3.7zm34.4 1.2c-1.4-1.4-2.1-3.6-2.1-6.5 0-1.2.2-2.8.6-4.7l4.9-23.1h10.4l-5.2 24.5c-.2.7-.3 1.5-.3 2.3 0 1 .2 1.6.7 2.1.5.4 1.2.6 2.3.6 1.4 0 2.7-.6 3.9-1.8 1.2-1.2 2.1-2.7 2.6-4.6h3c-1.8 5.2-4.1 8.7-6.8 10.5-2.8 1.8-5.5 2.8-8.3 2.8-2.4 0-4.2-.7-5.7-2.1zm6.5-39.8c-1.1-1.1-1.7-2.4-1.7-4s.6-2.9 1.7-4.1c1.1-1.1 2.4-1.7 4-1.7s2.9.6 4.1 1.7c1.1 1.1 1.7 2.5 1.7 4.1 0 1.6-.6 2.9-1.7 4s-2.5 1.7-4.1 1.7c-1.6 0-2.9-.6-4-1.7z" id="path3925" fill="#b97f25"/><path class="st1" d="M166.3 261.3c-1.2-1.5-1.7-3.5-1.7-5.8 0-1 .1-2.1.4-3.4.2-1.3.5-2.5.8-3.7.3-1.2.4-2 .5-2.3.4-1.7.7-3.3 1.1-5 .3-1.6.5-3 .5-4 0-2.4-.9-3.7-2.6-3.7-1.2 0-2.4.6-3.3 1.8-1 1.2-1.7 2.8-2.3 4.8l-4.9 23.1h-10.4l7.6-36h10.4l-.8 3.7c2.4-2.7 5.2-4 8.4-4 2.4 0 4.4.7 5.8 2 1.4 1.3 2.2 3.4 2.2 6.1 0 1.4-.2 2.9-.5 4.6-.3 1.7-.8 3.8-1.4 6.2-.4 1.5-.7 2.9-1 4.4-.3 1.4-.5 2.5-.5 3.3 0 1 .2 1.7.6 2.2.4.5 1.2.8 2.2.8 1.2 0 1.9-.1 2.4-.4-.3 2.4-1.2 4.3-2.6 5.5-1.5 1.2-3.2 1.9-5.3 1.9-2.6.2-4.4-.5-5.6-2.1zm45.9 9.7c-1.3-.3-2.5-1-3.5-2.1s-1.5-2.8-1.5-5.1c0-3.2 1-7.5 2.9-13 1.9-5.4 4.5-10.9 7.7-16.3-2.4.1-4.3.5-5.7 1.1-1.4.6-2.3 1.5-2.7 2.7.2 0 .4.2.6.7.2.5.3 1 .3 1.5 0 .9-.4 1.5-1.2 2.1-.8.5-1.7.8-2.9.8-1.3 0-2.4-.4-3.2-1.1-.8-.7-1.2-1.8-1.2-3.1 0-1.6.6-3.1 1.9-4.5 1.3-1.3 3-2.4 5.3-3.2 2.3-.8 4.8-1.2 7.5-1.2 1 0 2.3.1 3.7.2 3.9-6.2 8.1-11.3 12.5-15.3s8.6-5.9 12.6-5.9c2.3 0 4.2.3 5.7 1l-11.3 53h-10.4l5.5-26.1c-1.8-.8-3.4-1.4-4.9-1.8-1.5-.4-3.1-.6-4.8-.8-2.7 5.9-5 11.9-6.7 18.1-1.8 6.2-2.6 11.1-2.6 14.8 0 1.8.3 3.2 1 4-1.7-.1-3.3-.2-4.6-.5zm27.5-56.7c-2.1 1.1-4.2 3.2-6.4 6.2s-4.4 6.6-6.5 10.9c3.5.7 6.4 1.5 8.8 2.5zm14.2 46.5c-1.8-1.9-2.7-4.8-2.7-8.8 0-3.6.7-7.3 2.1-11.2 1.4-3.9 3.5-7.2 6.3-9.9s6.2-4.1 10-4.1c2 0 3.4.3 4.4 1 1 .7 1.4 1.6 1.4 2.7v.3l3.5-16.6 10.7-1.4-8.3 38.9c-.2.7-.3 1.5-.3 2.3 0 1 .2 1.6.7 2.1.5.4 1.2.6 2.3.6 1.3 0 2.5-.6 3.5-1.7 1-1.2 1.8-2.7 2.3-4.6h3c-2.9 8.6-7.8 12.9-14.5 12.9-2 0-3.6-.5-4.8-1.6-1.2-1.1-2-2.6-2.3-4.6-1.2 1.9-2.7 3.5-4.5 4.8-1.8 1.2-3.8 1.9-6.2 1.9-2.4-.2-4.7-1.1-6.6-3zm15.1-5.7c1.2-1.1 2-2.5 2.4-4.4v-.4l3.5-16.5c-.4-1.7-1.4-2.5-3-2.5-1.9 0-3.6 1.1-5.2 3.3-1.5 2.2-2.7 4.9-3.6 8.1-.9 3.1-1.3 5.9-1.3 8.3 0 2.4.3 3.9 1 4.6.7.7 1.5 1 2.6 1 1.2 0 2.4-.5 3.6-1.5zm25.5 6.4c-1.6-1.4-2.3-3.5-2.3-6.4 0-1.2.1-2.3.4-3.5l5.2-24.5h10.4l-5.2 24.5c-.2 1.2-.4 2.1-.4 2.6 0 1.6.8 2.4 2.4 2.4 2.2 0 4.3-1.4 6.2-4.2 1.9-2.8 3.4-6.1 4.6-9.9 1.2-3.8 1.7-7.2 1.7-9.9-.1.2-.4.4-.9.5-.5.1-1 .2-1.4.2-.8 0-1.5-.4-1.9-1.2-.5-.8-.7-1.6-.7-2.5 0-1.2.4-2.1 1.1-2.8.7-.7 1.9-1.1 3.3-1.1 1.6 0 2.7.6 3.5 1.8.7 1.2 1.1 2.7 1.1 4.5 0 4.3-.7 8.9-2.2 13.9-1.5 4.9-3.8 9.1-6.8 12.6-3.1 3.5-6.9 5.2-11.4 5.2-2.9-.1-5.1-.8-6.7-2.2zm33-.6c-2-1.8-3-4.7-3-8.7 0-3.3.6-7 1.9-10.9 1.3-4 3.4-7.4 6.3-10.3 2.9-2.9 6.6-4.4 11.2-4.4 5.3 0 7.9 2.3 7.9 6.9 0 2.7-.8 5.2-2.3 7.4-1.5 2.3-3.6 4.1-6.1 5.4-2.5 1.4-5.3 2.1-8.1 2.3-.1 1.4-.1 2.4-.1 2.9 0 2.4.4 3.9 1.2 4.8.8.8 2.1 1.3 4 1.3 2.6 0 4.8-.6 6.7-1.8 1.8-1.2 3.9-3 6.1-5.5h2.4c-5.3 8.9-11.9 13.3-19.8 13.3-3.5 0-6.3-.9-8.3-2.7zm13.5-17.6c1.6-1.2 2.9-2.6 3.9-4.4 1-1.8 1.5-3.6 1.5-5.6 0-2-.6-3-1.8-3-1.7 0-3.4 1.5-5.1 4.5-1.7 3-2.8 6.5-3.6 10.3 1.8 0 3.5-.6 5.1-1.8zm34.6 18c-1.4-1.6-2.1-3.5-2.1-5.8 0-1 .1-2.1.4-3.4.2-1.3.5-2.5.8-3.7.3-1.2.4-2 .5-2.3.4-1.7.7-3.3 1.1-5 .3-1.6.5-3 .5-4 0-2.4-.9-3.7-2.6-3.7-1.2 0-2.4.6-3.3 1.8-1 1.2-1.7 2.8-2.3 4.8l-4.9 23.1h-10.4l7.6-36h10.4l-.8 3.7c2.4-2.7 5.2-4 8.4-4 2.4 0 4.4.7 5.8 2 1.4 1.3 2.2 3.4 2.2 6.1 0 1.4-.2 2.9-.5 4.6-.3 1.7-.8 3.8-1.4 6.2-.4 1.5-.7 2.9-1 4.4-.3 1.4-.5 2.5-.5 3.3 0 1 .2 1.7.6 2.2.4.5 1.2.8 2.2.8 1.4 0 2.6-.5 3.5-1.5.9-1 1.7-2.6 2.6-4.8h3c-1.8 5.3-3.8 8.8-6.2 10.6-2.3 1.8-4.7 2.7-7.2 2.7-2.9.2-5-.5-6.4-2.1z" id="path3927" fill="#b97f25"/><path class="st1" d="M396.6 261.4c-1.2-1.5-1.8-3.5-1.8-5.9 0-1.2.1-2.5.4-3.8l4.6-21.6h-2.4l.6-2.9h2.4l2.2-9.9 10.7-1.4c-.4 1.8-.7 2.9-.7 3.2-.3 1.3-.9 4.1-1.7 8.1h4.3l-.6 2.9h-4.3l-4.6 21.6c-.2 1.1-.4 1.9-.4 2.5 0 1.7.8 2.6 2.5 2.6.9 0 1.5-.1 1.9-.2-1 2.8-2.1 4.7-3.4 5.6-1.3.9-2.7 1.4-4.2 1.4-2.5 0-4.3-.7-5.5-2.2zm25.4.5c-1.1-1.1-1.7-2.5-1.7-4.1 0-1.6.6-2.9 1.7-4s2.5-1.7 4.1-1.7c1.6 0 2.9.6 4 1.7s1.7 2.4 1.7 4-.6 2.9-1.7 4.1c-1.1 1.1-2.4 1.7-4 1.7s-2.9-.5-4.1-1.7zm8.6-51.3l11.1-1.5-10.4 37.5h-6.1z" id="path3929" fill="#b97f25"/></g></svg>