<svg xmlns="http://www.w3.org/2000/svg" width="676.843" height="333.209"><defs><style>.b,.z{fill:#fff}.c{fill:none;stroke:#ae6a16;stroke-linecap:round;stroke-linejoin:bevel;stroke-width:.621px;stroke-dasharray:1.552 1.552}.d,.i{fill:#b97f24}.d{font-size:25px;font-family:inherit;}.f{fill:#bf9553}.j{fill:#66369d}.k{fill:#967bb6}.aa,.l{fill:#522888}.m{fill:#603913}.n{fill:#ffb27d}.o{fill:#3c3c3b}.t{fill:#361c5e}.u{fill:#c98d65}.z{stroke:#522888;stroke-width:3px}.aa{font-size:11px;font-family:inherit;font-weight:800}</style></defs><g transform="translate(-1437.701 -1813.734)" opacity=".4"><path class="b" d="M1848.689 1838.122h36.429a5.94 5.94 0 015.94 5.939v36.43a5.94 5.94 0 01-5.94 5.938h-36.429a5.939 5.939 0 01-5.939-5.938v-36.43a5.939 5.939 0 015.939-5.939"/><rect class="c" width="47.516" height="47.516" rx="4.345" transform="translate(1843.146 1838.518)"/><path class="b" d="M1903.333 1838.122h36.428a5.939 5.939 0 015.939 5.939v36.43a5.939 5.939 0 01-5.939 5.938h-36.428a5.939 5.939 0 01-5.939-5.938v-36.43a5.939 5.939 0 015.939-5.939"/><rect class="c" width="47.516" height="47.516" rx="4.345" transform="translate(1897.789 1838.518)"/><path class="b" d="M1848.689 1902.27h36.429a5.94 5.94 0 015.94 5.939v36.43a5.94 5.94 0 01-5.94 5.938h-36.429a5.939 5.939 0 01-5.939-5.938v-36.432a5.939 5.939 0 015.939-5.939"/><rect class="c" width="47.516" height="47.516" rx="4.345" transform="translate(1843.146 1902.664)"/><path class="b" d="M1903.333 1902.27h36.428a5.939 5.939 0 015.939 5.939v36.43a5.939 5.939 0 01-5.939 5.938h-36.428a5.939 5.939 0 01-5.939-5.938v-36.432a5.939 5.939 0 015.939-5.939"/><rect class="c" width="47.516" height="47.516" rx="4.345" transform="translate(1897.789 1902.664)"/><path class="b" d="M1848.689 1966.414h36.429a5.94 5.94 0 015.94 5.939v36.43a5.941 5.941 0 01-5.94 5.939h-36.429a5.94 5.94 0 01-5.939-5.939v-36.43a5.939 5.939 0 015.939-5.939"/><rect class="c" width="47.516" height="47.516" rx="4.345" transform="translate(1843.146 1966.811)"/><path class="b" d="M1903.333 1966.414h36.428a5.939 5.939 0 015.939 5.939v36.43a5.94 5.94 0 01-5.939 5.939h-36.428a5.94 5.94 0 01-5.939-5.939v-36.43a5.939 5.939 0 015.939-5.939"/><rect class="c" width="47.516" height="47.516" rx="4.345" transform="translate(1897.789 1966.811)"/><path class="b" d="M1739.404 1838.122h36.428a5.939 5.939 0 015.939 5.939v36.43a5.939 5.939 0 01-5.939 5.938h-36.428a5.939 5.939 0 01-5.939-5.938v-36.43a5.939 5.939 0 015.939-5.939"/><rect class="c" width="47.516" height="47.516" rx="4.345" transform="translate(1733.86 1838.518)"/><path class="b" d="M1794.046 1838.122h36.428a5.94 5.94 0 015.941 5.939v36.43a5.94 5.94 0 01-5.941 5.938h-36.428a5.939 5.939 0 01-5.939-5.938v-36.43a5.939 5.939 0 015.939-5.939"/><rect class="c" width="47.516" height="47.516" rx="4.345" transform="translate(1788.503 1838.518)"/><path class="b" d="M1739.404 1902.27h36.428a5.939 5.939 0 015.939 5.939v36.43a5.939 5.939 0 01-5.939 5.938h-36.428a5.939 5.939 0 01-5.939-5.938v-36.432a5.939 5.939 0 015.939-5.939"/><rect class="c" width="47.516" height="47.516" rx="4.345" transform="translate(1733.86 1902.664)"/><path class="b" d="M1794.046 1902.27h36.428a5.94 5.94 0 015.941 5.939v36.43a5.94 5.94 0 01-5.941 5.938h-36.428a5.939 5.939 0 01-5.939-5.938v-36.432a5.939 5.939 0 015.939-5.939"/><rect class="c" width="47.516" height="47.516" rx="4.345" transform="translate(1788.503 1902.664)"/><path class="b" d="M1739.404 1966.414h36.428a5.939 5.939 0 015.939 5.939v36.43a5.94 5.94 0 01-5.939 5.939h-36.428a5.94 5.94 0 01-5.939-5.939v-36.43a5.939 5.939 0 015.939-5.939"/><rect class="c" width="47.516" height="47.516" rx="4.345" transform="translate(1733.86 1966.811)"/><path class="b" d="M1794.046 1966.414h36.428a5.94 5.94 0 015.941 5.939v36.43a5.941 5.941 0 01-5.941 5.939h-36.428a5.94 5.94 0 01-5.939-5.939v-36.43a5.939 5.939 0 015.939-5.939"/><rect class="c" width="47.516" height="47.516" rx="4.345" transform="translate(1788.503 1966.811)"/><path class="b" d="M1630.117 1838.122h36.428a5.94 5.94 0 015.941 5.939v36.43a5.94 5.94 0 01-5.941 5.938h-36.428a5.939 5.939 0 01-5.939-5.938v-36.43a5.939 5.939 0 015.939-5.939"/><rect class="c" width="47.516" height="47.516" rx="4.345" transform="translate(1624.573 1838.518)"/><path class="b" d="M1684.76 1838.122h36.429a5.939 5.939 0 015.935 5.939v36.43a5.939 5.939 0 01-5.939 5.938h-36.425a5.939 5.939 0 01-5.936-5.938v-36.43a5.939 5.939 0 015.939-5.939"/><rect class="c" width="47.516" height="47.516" rx="4.345" transform="translate(1679.217 1838.518)"/><path class="b" d="M1630.117 1902.27h36.428a5.94 5.94 0 015.941 5.939v36.43a5.94 5.94 0 01-5.941 5.938h-36.428a5.939 5.939 0 01-5.939-5.938v-36.432a5.939 5.939 0 015.939-5.939"/><rect class="c" width="47.516" height="47.516" rx="4.345" transform="translate(1624.573 1902.664)"/><path class="b" d="M1684.76 1902.27h36.429a5.939 5.939 0 015.939 5.939v36.43a5.939 5.939 0 01-5.939 5.938h-36.429a5.939 5.939 0 01-5.936-5.94v-36.43a5.939 5.939 0 015.939-5.939"/><rect class="c" width="47.516" height="47.516" rx="4.345" transform="translate(1679.217 1902.664)"/><path class="b" d="M1630.117 1966.414h36.428a5.94 5.94 0 015.941 5.939v36.43a5.941 5.941 0 01-5.941 5.939h-36.428a5.94 5.94 0 01-5.939-5.939v-36.43a5.939 5.939 0 015.939-5.939"/><rect class="c" width="47.516" height="47.516" rx="4.345" transform="translate(1624.573 1966.811)"/><path class="b" d="M1684.76 1966.414h36.429a5.939 5.939 0 015.939 5.939v36.43a5.94 5.94 0 01-5.939 5.939h-36.429a5.94 5.94 0 01-5.936-5.939v-36.43a5.939 5.939 0 015.939-5.939"/><rect class="c" width="47.516" height="47.516" rx="4.345" transform="translate(1679.217 1966.811)"/><path class="b" d="M1520.83 1838.122h36.428a5.939 5.939 0 015.939 5.939v36.43a5.939 5.939 0 01-5.939 5.938h-36.428a5.939 5.939 0 01-5.939-5.938v-36.43a5.939 5.939 0 015.939-5.939"/><rect class="c" width="47.516" height="47.516" rx="4.345" transform="translate(1515.288 1838.518)"/><path class="b" d="M1575.474 1838.122h36.428a5.94 5.94 0 015.941 5.939v36.43a5.94 5.94 0 01-5.941 5.938h-36.428a5.939 5.939 0 01-5.939-5.938v-36.43a5.939 5.939 0 015.939-5.939"/><rect class="c" width="47.516" height="47.516" rx="4.345" transform="translate(1569.93 1838.518)"/><path class="b" d="M1520.83 1902.27h36.428a5.939 5.939 0 015.939 5.939v36.43a5.939 5.939 0 01-5.939 5.938h-36.428a5.939 5.939 0 01-5.939-5.938v-36.432a5.939 5.939 0 015.939-5.939"/><rect class="c" width="47.516" height="47.516" rx="4.345" transform="translate(1515.288 1902.664)"/><path class="b" d="M1575.474 1902.27h36.428a5.94 5.94 0 015.941 5.939v36.43a5.94 5.94 0 01-5.941 5.938h-36.428a5.939 5.939 0 01-5.939-5.938v-36.432a5.939 5.939 0 015.939-5.939"/><rect class="c" width="47.516" height="47.516" rx="4.345" transform="translate(1569.93 1902.664)"/><path class="b" d="M1520.83 1966.414h36.428a5.939 5.939 0 015.939 5.939v36.43a5.94 5.94 0 01-5.939 5.939h-36.428a5.94 5.94 0 01-5.939-5.939v-36.43a5.939 5.939 0 015.939-5.939"/><rect class="c" width="47.516" height="47.516" rx="4.345" transform="translate(1515.288 1966.811)"/><path class="b" d="M1575.474 1966.414h36.428a5.94 5.94 0 015.941 5.939v36.43a5.941 5.941 0 01-5.941 5.939h-36.428a5.94 5.94 0 01-5.939-5.939v-36.43a5.939 5.939 0 015.939-5.939"/><rect class="c" width="47.516" height="47.516" rx="4.345" transform="translate(1569.93 1966.811)"/><text class="d" transform="translate(1935.701 1935.734)"><tspan x="-28.076" y="0">16</tspan></text><text class="d" transform="translate(1880.701 1935.734)"><tspan x="-28.076" y="0">15</tspan></text><text class="d" transform="translate(1825.701 1935.734)"><tspan x="-28.076" y="0">14</tspan></text><text class="d" transform="translate(1771.701 1935.734)"><tspan x="-28.076" y="0">13</tspan></text><text class="d" transform="translate(1716.701 1935.734)"><tspan x="-28.076" y="0">12</tspan></text><text class="d" transform="translate(1662.701 1935.734)"><tspan x="-28.076" y="0">11</tspan></text><text class="d" transform="translate(1607.701 1935.734)"><tspan x="-28.076" y="0">10</tspan></text><text class="d" transform="translate(1546.701 1935.734)"><tspan x="-14.038" y="0">9</tspan></text><text class="d" transform="translate(1935.701 1998.734)"><tspan x="-28.076" y="0">24</tspan></text><text class="d" transform="translate(1880.701 1998.734)"><tspan x="-28.076" y="0">23</tspan></text><text class="d" transform="translate(1825.701 1998.734)"><tspan x="-28.076" y="0">22</tspan></text><text class="d" transform="translate(1771.701 1998.734)"><tspan x="-28.076" y="0">21</tspan></text><text class="d" transform="translate(1716.701 1998.734)"><tspan x="-28.076" y="0">20</tspan></text><text class="d" transform="translate(1662.701 1998.734)"><tspan x="-28.076" y="0">19</tspan></text><text class="d" transform="translate(1607.701 1998.734)"><tspan x="-28.076" y="0">18</tspan></text><text class="d" transform="translate(1552.701 1998.734)"><tspan x="-28.076" y="0">17</tspan></text><text class="d" transform="translate(1546.701 1870.734)"><tspan x="-14.038" y="0">1</tspan></text><text class="d" transform="translate(1601.701 1870.734)"><tspan x="-14.038" y="0">2</tspan></text><text class="d" transform="translate(1655.701 1870.734)"><tspan x="-14.038" y="0">3</tspan></text><text class="d" transform="translate(1710.701 1870.734)"><tspan x="-14.038" y="0">4</tspan></text><text class="d" transform="translate(1764.701 1870.734)"><tspan x="-14.038" y="0">5</tspan></text><text class="d" transform="translate(1819.701 1870.734)"><tspan x="-14.038" y="0">6</tspan></text><text class="d" transform="translate(1874.701 1870.734)"><tspan x="-14.038" y="0">7</tspan></text><text class="d" transform="translate(1928.701 1870.734)"><tspan x="-14.038" y="0">8</tspan></text></g><path d="M607.702 279.439s-8.212-9.576-.5-15.65c0 0 5.609-3.409 10.2-3.13 0 0-6.508 10.878-4.4 11.963s6.353-12.644 6.353-12.644 12.8-1.24 16.89.744c0 0-10.94 8.956-8.615 9.483s14.1-8.244 14.1-8.244 11.9 2.014 11.281 9.3-4.742 9.514-6.539 9.3-12.334-4.215-12.582-2.727 6.105 6.291 10.568 6.539c0 0-8.4 9.266-13.977 6.57-5.578-2.665-6.043-6.911-9.545-8.492s-6.446-1.581-5.021.031 7.717 3.192 9.7 6.725 3.781 5.888-1.983 5.021-15.154-5.083-15.557-9.917z" fill="rgba(43,165,0,.49)"/><path class="f" d="M647.153 271.443s-32.323-1.24-39.451 8a23.372 23.372 0 01-6.446 9.049l-.744 2.076s5.609-5.919 7.593-6.26c0-.034-3.13-11.501 39.048-12.865z"/><path class="f" d="M601.256 288.457a20.271 20.271 0 00-7.407 14.287l1.271.124s2.231-9.483 6.229-13.2c3.967-3.69-.093-1.211-.093-1.211z"/><path d="M579.035 267.383s13.047-7.314 6.942-17.231c0 0-4.866-6.074-10.072-7.655 0 0 2.789 14.783 0 15.124s-1.922-16.7-1.922-16.7-13.729-6.6-19.121-6.074c0 0 8.523 14.442 5.733 14.1s-12.334-14.969-12.334-14.969-14.1-2.6-16.332 5.733c-2.262 8.337 1.395 12.52 3.471 13.047s15.464.341 15.124 2.076-9.39 4.525-14.442 2.944c0 0 5.578 13.729 12.861 13.047 7.314-.682 9.576-5.207 14.1-5.578 4.525-.341 7.841.868 5.578 2.076s-9.917.4-13.574 3.5-6.6 5.021.186 6.415 18.967.527 21.384-4.711 2.418-5.144 2.418-5.144z" fill="rgba(43,165,0,.5)"/><path class="f" d="M538.344 242.342s36.507 11.839 40.691 25.041a27.644 27.644 0 003.471 12.706v2.6s-3.812-8.863-5.919-10.072c0 .003 8.182-11.494-38.243-30.275z"/><path class="f" d="M582.507 280.089a24.043 24.043 0 012.417 18.966l-1.457-.4s1.395-11.467-1.55-17.231c-2.913-5.767.59-1.335.59-1.335z"/><path d="M599.768 257.311s-17.2-9.638-9.173-22.685c0 0 6.415-8.027 13.295-10.072 0 0-3.657 19.493 0 19.958s2.51-22 2.51-22 18.1-8.708 25.227-8.027c0 0-11.219 19.029-7.562 18.564s16.27-19.71 16.27-19.71 18.563-3.44 21.539 7.562-1.829 16.518-4.587 17.2-20.392.465-19.958 2.758c.465 2.293 12.365 5.95 19.028 3.9 0 0-7.345 18.1-16.952 17.2-9.638-.93-12.614-6.88-18.564-7.345s-10.32 1.147-7.345 2.758 13.078.527 17.882 4.618 8.708 6.6-.217 8.46c-8.926 1.829-24.979.682-28.2-6.2z" fill="#2ba500"/><path class="i" d="M653.413 224.306s-48.129 15.589-53.646 33.005a36.792 36.792 0 01-4.587 16.735v3.44s5.052-11.684 7.779-13.3c.032.005-10.753-15.118 50.454-39.88z"/><path class="i" d="M595.18 274.047s-7.438 11.281-3.192 25.01l1.921-.527s-1.859-15.124 2.046-22.716c3.874-7.593-.775-1.767-.775-1.767z"/><path class="j" d="M599.21 328.807a33.7 33.7 0 0033.687-33.687h-67.343a33.634 33.634 0 0033.656 33.687z"/><path class="k" d="M633.331 330.543h-68.273a4.153 4.153 0 014.153-4.153h59.968a4.133 4.133 0 014.153 4.153z"/><path class="l" d="M564.407 295.151h69.234v1.023h-69.234z"/><g><path class="m" d="M482.064 70.56a11.3 11.3 0 00-8.925-.961c-15.155-1.766-19.586 15.9-19.4 22 .217 6.074.9 12.613-5.888 20.516-19.555 22.84 21.415 23.863 21.415 23.863.341-18.254 22.22-11.591 21.26-9.731 28.077 6.729 2.819-49.83-8.462-55.687z"/><path class="n" d="M423.554 146.643s-2.665-4.06-4.8-4.153-6.136-1.209-5.826-.4 2.789.868 3.037 1.364-3.657 1.209-4.772 1.271c-1.116.093-3.75 0-3.657.558s4.742 2.851 8.027 2.541a22.464 22.464 0 017.345.961z"/><path class="k" d="M462.138 147.945a39.532 39.532 0 01-4.091 6.167c-3.161 3.967-8.058 8.553-14.194 9.452a15.125 15.125 0 01-8.43-1.364c-7.438-3.316-13.047-10.909-13.047-10.909a6.148 6.148 0 01.837-6.012s15.062 3.378 16.487 2.665 9.793-24.793 11.776-27.83 8.771-4.587 8.771-4.587z"/><path class="j" d="M458.046 154.112c-3.161 3.967-8.058 8.553-14.194 9.452a15.124 15.124 0 01-8.429-1.364c.279.031 7.748.961 10.692-4.339 3.037-5.423 6.291-14.008 10.785-11.157 1.983 1.24 1.89 4.309 1.146 7.408z"/><path class="o" d="M518.293 310.4s4.587 4.184 3.688 7.159-5.052 4.958-5.609 8.615c-.558 3.626-2.789 5.609-4.8 5.609h-9.607s-1.488-2.572 2.107-3.347 4.928-5.052 4.711-9.018a70.993 70.993 0 01.341-9.266l7.624-1.766zM479.43 312.166s1.643 17.758-.372 18.75l-25.784-.062s0-2.975 4.153-3.626 11.436-3.1 12.644-8.492 9.359-6.57 9.359-6.57z"/><path class="n" d="M497.806 184.824c-5.3-11.9-8.554-15.31-7.934-19.029.465-2.758-1.395-51.29-1.395-51.29-.62-.186-1.89-.372-2.572-.527a6.574 6.574 0 01-4.742-4.122 33.563 33.563 0 01-1.612-10.94l-.682.124-11.436 2.262s.248 3.595.279 7v.093a6.582 6.582 0 01-4.742 6.353c-1.457.4-2.7.775-2.7.775a105.493 105.493 0 00-4.99 24.3c-.806 12.3 7.624 17.665-.062 42.272-7.894 25.135 45.504 9.299 42.588 2.729z"/><path d="M467.437 101.334s.248 3.595.279 7c6.384-.186 9.793-6.012 11.157-9.266z" fill="#e8945b"/><path class="n" d="M465.298 104.526s15.155.248 15.155-9.173 1.983-15.743-7.686-16.3-11.56 3.037-12.3 6.2c-.809 3.127.895 18.963 4.831 19.273z"/><path class="m" d="M465.856 78.804s4.153 11.064 10.506 12.706 9.111-.062 9.111-.062a18.062 18.062 0 01-5.888-10.63c0-.031-10.599-7.283-13.729-2.014z"/><path class="m" d="M466.879 79.703s-3.068 1.147-4.339 3.378a15.169 15.169 0 00-2.045 8.646s-3.13-7.531.372-11.777c3.718-4.462 6.012-.247 6.012-.247z"/><path d="M468.583 98.669a3.844 3.844 0 01-3.13 1.271 2.81 2.81 0 01-2.324-1.549 10.372 10.372 0 015.454.278z" fill="#ebf3fa"/><path class="k" d="M499.265 135.982a106.362 106.362 0 010 11.932c-.248 4.308-4.618 10.072-5.238 11.529-1.55 3.595-3.316 4.153-3.316 4.153l-13.543 3.316-4.773 1.178-15.031-4.494s-6.849-19.09-4.091-29.844a83.426 83.426 0 016.942-18.223s12.241 11.994 28.2-1.023z"/><path d="M495.298 149.649c-.248 4.308-.651 8.337-1.271 9.762-1.55 3.595-3.316 4.153-3.316 4.153l-13.543 3.316-5.888-1.735s19.648-2.975 17.448-19.865z" fill="#f2ccaa"/><path class="i" d="M458.357 166.477s-7.438 23.15-7.9 31.022 14.225 111.97 14.813 115.6c.558 3.409 4.8 5.609 4.8 5.609a6.479 6.479 0 004.742.372c3.874-1.085 5.083-2.417 5.083-2.417s5.8-74.254 2.2-100.752a416.925 416.925 0 01-3.626-49.462h-20.113z"/><path class="f" d="M489.874 165.795s11.343 15.217 12.4 25.506 1.674 46.424 3.905 56.466c2.262 10.041 10.537 29.348 10.537 60.618a6.294 6.294 0 01-3.533 2.758c-.837.31-1.983.589-3.1.868a4.892 4.892 0 01-5.454-2.572c-5.61-11.281-23.429-47.633-24.328-55.164-.651-5.33-6.291-40.691-18.564-61.424-2.944-4.99 1.8-24.762 1.8-24.762z"/><path class="b" d="M468.246 98.917s-.248 1.116-3.037.93c0 0-2.324-.155-2.262-1.364a7.986 7.986 0 015.299.434z"/><path d="M457.148 162.913s2.975 2.355 8.926 2.479c7.1.155 24.638-1.8 24.638-1.8a14.572 14.572 0 01.744 4.494s-21.446 5.423-33.873.775c.029.002-1.582-3.035-.435-5.948z" fill="#233862"/><path class="b" d="M464.369 171.498a3.686 3.686 0 113.223-3.657 3.452 3.452 0 01-3.223 3.657zm0-6.26a2.61 2.61 0 102.169 2.572 2.408 2.408 0 00-2.169-2.572zM465.673 156.159l21.97-19.13 26.192 30.08-21.97 19.13z"/><path class="n" d="M485.783 167.159s-8.058.93-8.027 2.851 2.014 5.826 3.006 6.012 6.539-5.3 6.539-5.3z"/><path class="k" d="M488.449 114.505s10.754.744 14.876 10.754 11.931 26.838 11.931 29.658-4.37 11.56-27.8 16.549c0 0-2.417-2.541-2.293-4.556 0 0 14.627-12.582 14.6-14.039-.062-2.789-2.386-6.446-15.248-19.307-3.504-3.47 3.934-19.059 3.934-19.059z"/></g><g><path class="l" d="M265.746 331.163h-.124a1.177 1.177 0 01-1.178-1.178l1.766-76.486 5.207-.62-4.432 77.106a1.211 1.211 0 01-1.239 1.178z"/><path class="t" d="M235.467 331.163h-.124a1.177 1.177 0 01-1.178-1.178l1.766-76.486 5.207-.62-4.432 77.106a1.253 1.253 0 01-1.239 1.178z"/><path class="l" d="M319.051 331.163h.124a1.177 1.177 0 001.178-1.178l-1.766-76.486-5.207-.62 4.432 77.106a1.253 1.253 0 001.239 1.178zM232.029 248.727v-52.41a16.692 16.692 0 0116.7-16.7h37.778a16.692 16.692 0 0116.7 16.7v54.42z"/><path class="t" d="M309.94 257.002h-72.922a5.019 5.019 0 01-5.021-5.021v-3.254h77.942z"/><path class="l" d="M318.68 257.002h-55.164a3.73 3.73 0 01-3.719-3.719v-.868a3.73 3.73 0 013.719-3.719h55.164a3.73 3.73 0 013.719 3.719v.868a3.71 3.71 0 01-3.719 3.719z"/></g><g><path class="j" d="M316.541 235.68c-5.423 9.421-12.21 13.047-12.21 13.047h-28.295s44.627-20.237 40.505-13.047z"/><path class="u" d="M294.817 308.539a2.578 2.578 0 00-.465 2.789c.682 1.859 2.913 3.936 5.485 6.043.341.279.62.5.868.744l.186.186c.062.031.093.093.155.124 2.417 2.231 1.519 2.727 5.857 7.252 4.958 5.145 8.367 5.238 9.328 4.773.806-.4-.837-3.13-2.7-6.2-.093-.155-.186-.31-.279-.434-.248-.4-.5-.837-.744-1.24-2.169-3.688-1.612-5.423-1.085-10.94.4-4.463 6.942-24.979 6.942-24.979l-9.483-1.643s-2.851 16.332-6.012 18.843c-1.674 1.333-3.564 1.364-5.176 2.355-.124.062-.217.155-.341.217a13.5 13.5 0 00-2.536 2.11z"/><path class="o" d="M294.817 308.539a2.578 2.578 0 00-.465 2.789c.837 1.859 3.006 3.936 5.516 6.012.341.279.62.527.868.744l.186.186c.062.031.093.093.155.124 2.417 2.231 1.519 2.727 5.857 7.252 4.958 5.145 8.368 5.238 9.328 4.773.806-.4-.837-3.13-2.7-6.2a20.922 20.922 0 01-8.833-6.508c-2.975-3.812-4.958-8.677-7-11.529-.124.062-.217.155-.341.217a14.078 14.078 0 00-2.571 2.14z"/><path class="u" d="M371.303 302.62c.589 2.913 4.772 2.448 9.421 1.3s3.564.217 10.2-.527 8.646-3.223 8.864-4.184c.186-.868-3.1-1.178-6.6-1.58-.434-.062-.9-.093-1.333-.155-3.967-.5-6.88-3.068-10.475-5.176-3.409-1.983-8.522-10.1-8.522-10.1l-9.111.713s4.773 7.252 6.632 10.413c1.085 1.859 1.023 4.308.9 6.2a9.466 9.466 0 00.024 3.096z"/><path class="o" d="M380.723 303.922c4.649-1.147 3.564.217 10.2-.527s8.646-3.223 8.864-4.184c.186-.868-3.1-1.178-6.6-1.58l-.031.062a18.615 18.615 0 01-9.514 2.944c-4.494.124-9.266-1.178-12.365-1.116a12.96 12.96 0 00.062 3.1c.552 2.91 4.705 2.417 9.384 1.301z"/><path class="j" d="M336.407 244.42l-8.522 22.9-11.095 29.906a18.508 18.508 0 01-5.888-.527 25.431 25.431 0 01-5.7-2.789s3.1-32.107 8.833-50.515c1.488-4.742 3.13-8.554 4.958-10.723 8.922-10.566 17.414 11.748 17.414 11.748z"/><path class="k" d="M327.76 208.067c-5.578-1.8-21.477.5-37.437 3.626l-3.347-5.516-34.493-2.7s-11.374 25.227-5.145 41.311a5.862 5.862 0 005.826 3.936h27.706c17.169 0 36.29-11.776 38.77-12.272 4.06-.806 5.671 7.314 9.731 15.805s38.12 37.723 38.12 37.723 5.237.062 7.407-.744a7.076 7.076 0 003.161-2.014s-37.716-75.126-50.299-79.155z"/><path d="M285.612 105.735c-4.432-2.324-11.157-2.634-12.241-2.789-13.078-1.766-20.95 17.231-21.415 23-.868 10.6-6.477 12.21-14.349 18.874-15.836 13.326-11.188 28.791-2.541 34.555 5.206 3.44 14.349 0 14.349 0 .124.093 25.041-13.915 37.344-20.7 18.44-2.611 10.134-47.021-1.147-52.94z"/><path class="u" d="M276.47 152.903c.062.031-6.043 2.107-10.134.31-3.843-1.7-6.756-8-6.694-8 1.735-.093 3.657-1.612 5.144-11.622l.744.279 12.489 4.494s-.9 4-1.488 7.81c-.464 3.227-.743 6.296-.061 6.729z"/><path d="M278.05 138.369s-.9 4-1.488 7.81c-7.19-1.3-9.979-8.43-11-12.334z" fill="#b57c5d"/><path class="u" d="M279.91 142.335s-17.107-2.293-15.5-12.923c1.581-10.63.465-18.068 11.436-17.045s12.489 5.392 12.83 9.049-4.272 21.26-8.766 20.919z"/><path d="M288.03 115.621s-10.94 9.421-18.378 10.2-10.258-1.643-10.258-1.643a29.147 29.147 0 007.035-9.514 5.274 5.274 0 014.308-3.1c5.33-.468 15.402-.654 17.293 4.057z"/><path d="M281.212 114.753s3.657 3.533 4.8 6.167c1.116 2.541 1.457 8.584.558 11 0 0 5.7-11.095 2.479-16.487-3.405-5.7-7.837-.68-7.837-.68z"/><path class="b" d="M290.881 178.099c-.527 34.586-.155 27.365-3.936 30.65-.9.806-3.471 1.271-6.849 1.488-10.6.713-29.255-1.054-29.968-3.006-2.448-6.787-.713-8.894-2.758-19.276a87.038 87.038 0 00-.775-3.595c-1.7-7.128-3.347-9.545 2.665-21.012 5.485-10.382 11.157-18.812 11.684-18.5 14.442 8.584 15.619 1.364 15.619 1.364s14.566 14.997 14.318 31.887z"/><path class="k" d="M327.915 267.322l-11.095 29.906a18.51 18.51 0 01-5.888-.527 25.438 25.438 0 01-5.7-2.789s3.1-32.107 8.832-50.515z"/><path class="b" d="M276.563 146.178s14.876 2.51 16.611 8.925 12.025 44.038 12.025 44.038-7.562 1.364-11.064-2.138-12.149-32.385-12.149-32.385z"/><path d="M280.096 210.236c-10.6.713-29.255-1.054-29.968-3.006-2.448-6.787-.713-8.894-2.758-19.276l5.114-14.411s-.837 16.053 3.874 20.268c4.742 4.215 19.369 8.151 21.663 11.684a12.305 12.305 0 012.075 4.741z" fill="#ebf3ff"/><path class="u" d="M267.948 203.48s10.475-2.324 12.148-1.395 5.826 4.308 6.322 5.485c.527 1.178-3.75-.9-5.145-1.271-.9-.248-3.285.589-4.432.961-4.928 1.643-7.965.806-7.965.806z"/><path class="b" d="M260.944 144.814s-14.039.868-18.9 7.655c-6.849 9.545-20.423 50.267-12.644 55.691 8.77 6.105 39.916 1.611 39.916 1.611s1.023-4.835-.4-7.19-24.886-6.136-25.939-7.221 13.512-21.074 13.512-24.328 4.455-26.218 4.455-26.218z"/><path class="u" d="M280.592 204.999a20.729 20.729 0 002.913 3.161 2.049 2.049 0 001.178.248l-1.488-2.665zM280.096 202.086l6.384 3.1a1.165 1.165 0 01-1.054.4 14.667 14.667 0 01-2.758-.775z"/><g><path class="f" d="M283.506 212.499h50.453l15.155-37.747h-50.36z"/><path class="i" d="M334.548 211.011h-66.6v1.488h66.011z"/><path class="b" d="M321.222 193.625a1.731 1.731 0 00-1.7-2.386 3.49 3.49 0 00-3.1 2.386 1.731 1.731 0 001.7 2.386 3.414 3.414 0 003.1-2.386z"/></g></g><g><path class="l" d="M50.267 255.204h-.155a3.419 3.419 0 01-3.409-3.409v-71.651a3.419 3.419 0 013.409-3.409h.155a3.419 3.419 0 013.409 3.409v71.651a3.439 3.439 0 01-3.409 3.409z"/><path class="t" d="M50.141 331.163h-.124a1.177 1.177 0 01-1.178-1.178l1.766-76.486 5.206-.62-4.432 77.106a1.232 1.232 0 01-1.238 1.178z"/><path class="l" d="M133.756 331.163h.129a1.177 1.177 0 001.178-1.178l-1.767-76.486-5.206-.62 4.432 77.106a1.211 1.211 0 001.234 1.178z"/><path class="l" d="M133.385 248.727H46.703v3.254a5.019 5.019 0 005.021 5.021h81.661a3.73 3.73 0 003.719-3.719v-.868a3.744 3.744 0 00-3.719-3.688z"/><path class="o" d="M176.772 314.831s-1.271 15.867 1.55 16.084c.372.031 14.411.031 14.411.031l17.913-.093s-.124-4.308-5.361-5.237c-5.238-.9-15.589-5.331-18.75-12.241-3.347-7.317-9.763 1.456-9.763 1.456z"/><path d="M69.047 227.932s.589 15.589 3.347 20.826h63.346s15.217 1.581 16.611 2.6c1.735 1.3-6.105 14.132 23.305 64.337l14.411-.372s-15.062-81.413-17.727-83.459c-4-3.068-50.856-13.822-58.883-14.039-8.058-.275-44.41 10.107-44.41 10.107z" fill="#2d2d2d"/><path class="n" d="M104.532 135.549c4.9 3.037 5.176 9.049 5.176 9.049-11.932 3.068-29.255-10.165-29.255-10.165s7.686-5.144 10.506-16.487c.155-.558.279-1.147.4-1.766a38.048 38.048 0 00.651-6.2l5.485 4.9 9.111 8.151a82.672 82.672 0 01-1.333 9.2c-.245 1.086-.462 2.171-.741 3.318z"/><path class="f" d="M111.289 198.15c-.4 2.665.4 4.8.806 6.787a7.769 7.769 0 01.186 2.231c-.651 7.345 1.983 8.306 1.147 10.661a57.019 57.019 0 01-7.934 3.595 96.984 96.984 0 01-8 2.6c-.155.031-.31.093-.5.124a117.117 117.117 0 01-27.975 3.813c-6.756-.186-8.12-17.324-5.609-38.894 3.9-33.625 9.173-49.926 23.119-61.7.868-.744.279 1.8 4.958 4.029a21.91 21.91 0 0013.574 1.674l3.192 3.254c6.322 9.979 6.973 21.849 6.446 31.735a283.546 283.546 0 01-3.41 30.091z"/><path d="M106.577 123.09s.5-.5-.651 5.3c-10.072-2.913-13.357-8.058-14.721-11.467-.372-.961 3.75-1.488 6.26-2.014z" fill="#ed975d"/><path class="n" d="M111.257 123.12s-19.462 2.789-21.012-9.359-5.114-19.958 7.252-22.251 15.371 2.045 16.859 5.95c1.519 3.936 1.922 24.607-3.099 25.66z"/><path class="j" d="M185.969 213.619l-1.48-.463 12.194-38.983 1.479.462z"/><path class="l" d="M186.013 213.629l-42.861-.429.026-2.572 42.86.429z"/><path class="m" d="M84.048 91.758c-.155-.186-.527-.341-1.333-.372a3.162 3.162 0 011.519-.4c.186-1.116.806-3.1 2.727-3.564a2.4 2.4 0 00-1.178 1.736c2.262-2.293 7.066-3.936 20.361-2.758 17.51 1.519 11.653 12.706 9.359 14.008-2.293 1.333-7.965-2.386-12.179-2.076s-5.083 6.415-6.508 7.221c-1.426.837-.868-.651-2.789-1.55s-2.138 2.324-1.611 4.432c.558 2.107-2.138 4.835-2.138 4.835l-2.665-2.913c-2.665-2.913-5.114-15.248-3.874-17.851a4.131 4.131 0 01.309-.748z"/><path class="i" d="M113.426 217.798a57.012 57.012 0 01-7.934 3.595c-22.19-16.208-22.1-54.544-22.19-55.195l27.892 24.545.93 14.194a7.771 7.771 0 01.186 2.231c-.681 7.314 1.922 8.244 1.116 10.63z"/><path class="n" d="M153.622 199.762a6.993 6.993 0 003.657-.589c1.891-.9 8.4-3.688 9.607-3.285s5.207 2.634 6.136 3.068a12.414 12.414 0 012.6 2.634c-.682.682-3.1-.9-4.184-.868s-9.08 4.4-11.436 4.494a45.108 45.108 0 01-6.074-.4z"/><path class="n" d="M168.095 200.103c.031.124 2.913 3.347 5.145 2.324l-2.417-2.386zM157.279 199.173a44.123 44.123 0 003.471-3.564s.527.248.527.682a5.8 5.8 0 01-.682 2.076z"/><path class="f" d="M106.144 141.963c-14.287-8.708-31.146 6.508-24.08 21.663 8.213 17.572 21.911 39.018 32.789 40.288 7.748.9 29.906 3.75 39.3 1.983 0 0 4.556.217 2.076-7.1 0 0-30.309-8.461-35.361-15-2.7-3.5-7.314-10.63-14.411-41.621-.003-.151-.22-.151-.313-.213z"/></g><g><path class="t" d="M490.402 331.163h.155a1.608 1.608 0 001.612-1.643l-2.448-105.679-7.19-.837 6.136 106.516a1.756 1.756 0 001.735 1.643z"/><path class="j" d="M137.29 331.163h-.155a1.607 1.607 0 01-1.611-1.643l2.448-105.679 7.19-.837-6.136 106.516a1.735 1.735 0 01-1.736 1.643z"/><path class="j" d="M496.662 225.793h-366.53a4.841 4.841 0 01-4.835-4.835v-3.1a4.841 4.841 0 014.835-4.835h366.53a4.841 4.841 0 014.835 4.835v3.1a4.841 4.841 0 01-4.835 4.835z"/></g><g><path class="j" d="M442.241 213.025h-50.453l-15.186-37.716h50.36z"/><path class="l" d="M391.199 211.568h66.6v1.457h-66.011z"/><path class="b" d="M404.525 194.182a1.731 1.731 0 011.7-2.386 3.49 3.49 0 013.1 2.386 1.731 1.731 0 01-1.7 2.386 3.456 3.456 0 01-3.1-2.386z"/></g><path class="l" d="M676.843 331.44v.465c0 .713-.341 1.3-.775 1.3H.775c-.434 0-.775-.589-.775-1.3v-.465c0-.713.341-1.3.775-1.3H676.1c.4 0 .743.589.743 1.3z"/><path class="z" d="M509.626 59.317H497a9.5 9.5 0 01-9.5-9.5V11a9.5 9.5 0 019.5-9.5h114a9.5 9.5 0 019.5 9.5v38.817a9.5 9.5 0 01-9.5 9.5h-83.423l-17.952 22.675z"/><text class="aa" transform="translate(555 29)"><tspan x="-63.938" y="0">Jeg legger inn en julevits </tspan><tspan x="-41.049" y="13">på luke 15 og 18</tspan></text><g><path class="z" d="M126.118 59.317H109a9.5 9.5 0 01-9.5-9.5V11a9.5 9.5 0 019.5-9.5h141a9.5 9.5 0 019.5 9.5v38.817a9.5 9.5 0 01-9.5 9.5H147.714l-21.6 22.675z"/><text class="aa" transform="translate(180 28)"><tspan x="-65.237" y="0">Hva tenker dere om å gi et</tspan><tspan x="-47.4" y="13">gavekort i luke 24?</tspan></text></g><path class="z" d="M296.31 88.459H293a9.5 9.5 0 01-9.5-9.5V66a9.5 9.5 0 019.5-9.5h58a9.5 9.5 0 019.5 9.5v12.958a9.5 9.5 0 01-9.5 9.5h-44.3l-10.39 12.534z"/><text class="aa" transform="translate(322 76)"><tspan x="-30.411" y="0">God ide Per!</tspan></text></svg>